<svg width="64" xmlns="http://www.w3.org/2000/svg" height="64" viewBox="0 0 64 64" fill="none">
    <g fill="#000">
        <path d="M0 0h64v64H0Z" class="fills" fill="#a96627"/>
        <path d="M17.2 46.5a3.6 3.6 0 0 1-2.612-1.064c-.724-.709-1.087-1.563-1.088-2.561v-21.75c0-.997.363-1.85 1.088-2.559A3.605 3.605 0 0 1 17.2 17.5h29.6a3.6 3.6 0 0 1 2.614 1.066c.725.71 1.087 1.563 1.086 2.559v21.75c0 .997-.362 1.851-1.086 2.561-.724.711-1.595 1.065-2.614 1.064ZM32 33.813l14.8-9.063v-3.625L32 30.188l-14.8-9.063v3.625Z" class="fills" fill="#fff"/>
    </g>
</svg>
