<svg width="64" xmlns="http://www.w3.org/2000/svg" height="64" viewBox="0 0 64 64" fill="none">
    <style>path{fill:#000}@media (prefers-color-scheme:dark){path{fill:#fff}}</style>
    <path d="M36.688 41.392c-.95 0-1.76-.317-2.431-.952-.67-.635-1.006-1.4-1.007-2.296-.001-.896.334-1.663 1.007-2.3.673-.636 1.483-.953 2.431-.95.948.003 1.758.32 2.431.952.673.632 1.008 1.398 1.006 2.298-.002.9-.338 1.666-1.007 2.297-.67.632-1.48.949-2.43.951ZM21.624 46c-.747 0-1.371-.237-1.872-.71-.5-.473-.751-1.063-.752-1.771V23.906c0-.707.251-1.297.752-1.77.502-.473 1.126-.71 1.874-.711h2.875V18h1.75v3.425h11.625V18h1.625v3.425h2.875c.747 0 1.372.237 1.873.711.502.474.752 1.065.751 1.771v19.612c0 .707-.25 1.297-.751 1.771-.5.474-1.125.711-1.875.71Zm0-1.536h20.752c.249 0 .478-.098.687-.295.209-.196.313-.414.312-.651V30.051h-22.75v13.468c0 .236.104.453.312.65.208.198.437.296.687.295Zm-.999-15.951h22.75v-4.607c0-.236-.104-.452-.312-.65-.208-.198-.438-.296-.689-.295H21.626c-.25 0-.48.098-.689.295-.209.197-.313.414-.312.651Zm0 0v-5.552Z"/>
</svg>
