<svg xmlns="http://www.w3.org/2000/svg" width="48" height="48" viewBox="0 0 48 48">
    <style>.c1{fill:#cfd8dc}.c2{fill:#f44336}.c3{fill:#b71c1c}.c4{fill:#b0bec5}.c5{fill:#90a4ae}@media
        (prefers-color-scheme:dark){.c1{fill:#3a4244}.c2{fill:#ff6b5f}.c3{fill:#e54c4c}.c4{fill:#6a7e85}.c5{fill:#5a6e75}}
    </style>
    <g opacity="0.5">
        <path class="c1" d="M5 38V14h38v24c0 2.2-1.8 4-4 4H9c-2.2 0-4-1.8-4-4"/>
        <path class="c2" d="M43 10v6H5v-6c0-2.2 1.8-4 4-4h30c2.2 0 4 1.8 4 4"/>
        <g class="c3">
            <circle cx="33" cy="10" r="3"/>
            <circle cx="15" cy="10" r="3"/>
        </g>
        <path class="c4"
              d="M33 3c-1.1 0-2 .9-2 2v5c0 1.1.9 2 2 2s2-.9 2-2V5c0-1.1-.9-2-2-2M15 3c-1.1 0-2 .9-2 2v5c0 1.1.9 2 2 2s2-.9 2-2V5c0-1.1-.9-2-2-2"/>
        <path class="c5"
              d="M13 20h4v4h-4zm6 0h4v4h-4zm6 0h4v4h-4zm6 0h4v4h-4zm-18 6h4v4h-4zm6 0h4v4h-4zm6 0h4v4h-4zm6 0h4v4h-4zm-18 6h4v4h-4zm6 0h4v4h-4zm6 0h4v4h-4zm6 0h4v4h-4z"/>
    </g>
</svg>
