<?xml version="1.0" encoding="UTF-8" standalone="no"?>
<!DOCTYPE svg PUBLIC "-//W3C//DTD SVG 1.1//EN" "http://www.w3.org/Graphics/SVG/1.1/DTD/svg11.dtd">
<svg width="100%" height="100%" viewBox="0 0 512 512" version="1.1" xmlns="http://www.w3.org/2000/svg" xmlns:xlink="http://www.w3.org/1999/xlink" xml:space="preserve" xmlns:serif="http://www.serif.com/" style="fill-rule:evenodd;clip-rule:evenodd;stroke-linejoin:round;stroke-miterlimit:2;">
    <g>
        <style>.c1{fill:#dce2e2}.c2{fill:#96a9b2}.c3{fill:#b9c5c6}@media (prefers-color-scheme:dark){.c1{fill:#3a4042}.c2{fill:#5a6d76}.c3{fill:#697a82}}</style>
        <path d="M429.284,507.594L73.897,507.594C61.968,507.594 52.297,497.923 52.297,485.994L52.297,25.317C52.297,13.388 61.968,3.717 73.897,3.717L336.923,3.717L450.884,116.456L450.884,485.994C450.884,497.923 441.214,507.594 429.284,507.594" style="fill:rgb(220,226,226);fill-rule:nonzero;"/>
        <path d="M287.875,79.728L102.147,79.728C97.811,79.728 94.243,76.16 94.243,71.824C94.243,67.488 97.811,63.92 102.147,63.92L287.875,63.92C292.211,63.92 295.779,67.488 295.779,71.824C295.779,76.16 292.211,79.728 287.875,79.728M267.281,126.218C267.281,121.882 263.713,118.314 259.377,118.314L102.147,118.314C97.811,118.314 94.243,121.882 94.243,126.218C94.243,130.554 97.811,134.122 102.147,134.122L259.376,134.122C263.712,134.122 267.28,130.554 267.281,126.218M390.55,180.612C390.55,176.276 386.982,172.708 382.646,172.708L102.147,172.708C97.811,172.708 94.243,176.276 94.243,180.612C94.243,184.948 97.811,188.516 102.147,188.516L382.645,188.516C386.981,188.516 390.549,184.948 390.55,180.612M372.947,235.005C372.947,230.669 369.379,227.101 365.043,227.101L102.147,227.101C97.811,227.101 94.243,230.669 94.243,235.005C94.243,239.341 97.811,242.909 102.147,242.909L365.043,242.909C369.379,242.909 372.947,239.341 372.947,235.005M267.281,289.399C267.281,285.063 263.713,281.495 259.377,281.495L102.147,281.495C97.811,281.495 94.243,285.063 94.243,289.399C94.243,293.735 97.811,297.303 102.147,297.303L259.376,297.303C259.377,297.303 259.377,297.303 259.378,297.303C263.713,297.303 267.281,293.735 267.281,289.4C267.281,289.4 267.281,289.399 267.281,289.399M390.55,343.793C390.55,339.457 386.982,335.889 382.646,335.889L102.147,335.889C97.811,335.889 94.243,339.457 94.243,343.793C94.243,348.129 97.811,351.697 102.147,351.697L382.645,351.697C386.981,351.697 390.549,348.129 390.55,343.793M390.55,398.187C390.55,393.851 386.982,390.283 382.646,390.283L102.147,390.283C97.811,390.283 94.243,393.851 94.243,398.187C94.243,402.523 97.811,406.091 102.147,406.091L382.645,406.091C386.981,406.091 390.549,402.523 390.55,398.187M390.55,452.58C390.55,448.244 386.982,444.676 382.646,444.676L102.147,444.676C97.811,444.676 94.243,448.244 94.243,452.58C94.243,456.916 97.811,460.484 102.147,460.484L382.645,460.484C386.981,460.484 390.549,456.916 390.55,452.58" style="fill:rgb(150,169,178);fill-rule:nonzero;"/>
        <path d="M336.923,3.717L449.662,116.456L360.886,116.456C347.651,116.456 336.923,105.727 336.923,92.493L336.923,3.717Z" style="fill:rgb(185,197,198);fill-rule:nonzero;"/>
        <g transform="matrix(6.16883,0,0,6.16883,224.402,224.402)">
            <path d="M24,4C13,4 4,13 4,24C4,35 13,44 24,44C35,44 44,35 44,24C44,13 35,4 24,4" style="fill:rgb(124,179,66);fill-rule:nonzero;"/>
        </g>
        <g transform="matrix(6.16883,0,0,6.16883,224.402,224.402)">
            <path d="M45,24C45,35.7 35.5,45 24,45C12.5,45 3,35.7 3,24C3,12.3 12.3,3 24,3C35.7,3 45,12.3 45,24M23.8,33.7C23.8,33.3 23.6,33.1 23.2,32.9C21.9,32.5 20.7,32.5 19.6,31.4C19.4,31 19.4,30.6 19.2,30.1C18.8,29.7 17.7,29.5 17.1,29.3L12.9,29.3C12.3,29.1 11.8,28.2 11.4,27.6C11.4,27.4 11.4,27 11,27C10.6,26.8 10.2,27.2 9.7,27C9.5,26.8 9.5,26.6 9.5,26.4C9.5,25.8 9.9,25.1 10.3,24.7C10.9,24.3 11.6,24.9 12.2,24.9C12.4,24.9 12.4,24.9 12.6,25.1C13.2,25.3 13.4,26.1 13.4,26.8L13.4,27.2C13.4,27.4 13.6,27.4 13.8,27.4C14,26.3 14,25.3 14.2,24.2C14.2,22.9 15.5,21.7 16.5,21.3C16.9,21.1 17.1,21.5 17.6,21.3C18.9,20.9 22,19.6 21.4,17.9C21,16.4 19.7,15 18,15.2C17.6,15.4 17.4,15.6 17,15.8C16.4,16.2 15.1,17.5 14.5,17.5C13.4,17.3 13.4,15.8 13.7,15.2C13.9,14.4 15.8,11.6 17.1,12.1L17.9,12.9C18.3,13.1 19,13.1 19.6,13.1C19.8,13.1 20,13.1 20.2,12.9C20.4,12.7 20.4,12.7 20.4,12.5C20.4,11.9 19.8,11.2 19.4,10.8C19,10.4 18.3,10 17.7,9.7C15.6,9.1 12.2,9.9 10.6,11.4C9,12.9 7.7,15.4 6.8,17.5C6.4,18.8 6,20.4 5.8,21.9C5.6,22.9 5.4,23.8 6,24.8C6.6,26.1 7.9,27.3 9.2,28.2C10,28.8 11.7,28.8 12.6,29.9C13.2,30.7 13,31.8 13,32.8C13,34.1 13.8,35.1 14.3,36.2C14.5,36.8 14.7,37.7 14.9,38.3C14.9,38.5 15.1,39.8 15.1,40C16.4,40.6 17.4,41.3 18.9,41.7C19.1,41.7 19.9,40.4 19.9,40.2C20.5,39.6 21,38.7 21.6,38.3C22,38.1 22.4,37.9 22.9,37.5C23.3,37.1 23.5,36.2 23.7,35.6C23.8,35.1 24,34.3 23.8,33.7M24.2,14.3C24.4,14.3 24.6,14.1 25,13.9C25.6,13.5 26.3,12.8 26.9,12.4C27.5,12 28.2,11.3 28.6,10.9C29.2,10.5 29.7,9.6 29.9,9C30.1,8.6 30.7,7.7 30.5,7.1C30.3,6.7 29.2,6.5 28.8,6.3C27.1,5.9 25.7,5.7 24,5.7C23.4,5.7 22.5,5.9 22.3,6.5C22.1,7.6 22.9,7.3 23.8,7.6C23.8,7.6 24,9.3 24,9.5C24.2,10.5 23.6,11.2 23.6,12.2C23.6,12.8 23.6,13.9 24,14.3L24.2,14.3ZM41.8,29C42,28.6 42,27.9 42.2,27.5C42.4,26.5 42.4,25.4 42.4,24.4C42.4,22.3 42.2,20.2 41.6,18.3C41.2,17.7 41,17 40.8,16.4C40.4,15.3 39.8,14.3 38.9,13.5C38.1,12.4 37,9.5 35.1,10.4C34.5,10.6 34.1,11.4 33.6,11.9C33.2,12.5 32.8,13.2 32.3,13.8C32.1,14 31.9,14.4 32.1,14.6C32.1,14.8 32.3,14.8 32.5,14.8C32.9,15 33.1,15 33.5,15.2C33.7,15.2 33.9,15.4 33.7,15.6C33.7,15.6 33.7,15.8 33.5,15.8C32.5,16.9 31.4,17.7 30.4,18.7C30.2,18.9 30,19.3 30,19.5C30,19.7 30.2,19.7 30.2,19.9C30.2,20.1 30,20.1 29.8,20.3C29.4,20.5 29,20.7 28.7,20.9C28.5,21.3 28.7,22 28.5,22.4C28.3,23.5 27.7,24.3 27.2,25.3C26.8,25.9 26.6,26.6 26.2,27.2C26.2,28 26,28.7 26.4,29.3C27.4,30.8 29.3,29.9 30.8,30.6C31.2,30.8 31.6,30.8 31.9,31.2C32.5,31.8 32.5,32.9 32.7,33.5C32.9,34.3 33.1,35.2 33.5,36C33.7,37 34.1,38.1 34.3,38.9C36.2,37.4 37.9,35.8 39.1,33.7C40.6,32.4 41.2,30.7 41.8,29" style="fill:rgb(2,119,189);fill-rule:nonzero;"/>
        </g>
    </g>
</svg>
