<svg xmlns="http://www.w3.org/2000/svg" width="32" height="32" viewBox="0 0 32 32">
    <style>.c1{fill:#7d4533}.c2{fill:#5092ff}.c3{fill:#3f5fff}.c4{fill:#1345b7}.c5{fill:#f92f60}.c6{fill:#d3d3d3}@media
        (prefers-color-scheme:dark){.c1{fill:#a76953}.c2{fill:#70acff}.c3{fill:#6f8fff}.c4{fill:#4575d7}.c5{fill:#ff5f90}.c6{fill:#a8a8a8}}
    </style>
    <g fill="none">
        <path class="c1" d="M16.81 30.04V23.4L14.5 22l-2.67 1.4v6.64z"/>
        <path class="c2" d="M21.65 7H7.84L11 23.61h14.99a1.5 1.5 0 0 0 1.5-1.5v-9.27C27.48 9.61 24.87 7 21.65 7"/>
        <path class="c3"
              d="M7.84 7C4.61 7 2 9.61 2 12.84v9.27a1.5 1.5 0 0 0 1.5 1.5h8.67a1.5 1.5 0 0 0 1.5-1.5v-9.27C13.67 9.61 11.06 7 7.84 7"/>
        <path class="c4"
              d="M9.27 20H4.98c-.54 0-.98.44-.98.98s.44.98.98.98h4.29c.54 0 .98-.44.98-.98a.97.97 0 0 0-.98-.98"/>
        <path class="c5"
              d="M24.132 2h-5.264c-.475 0-.868.369-.868.816v2.368c0 .447.393.816.869.816h5.262c.476 0 .869-.369.869-.816V2.816c0-.447-.393-.816-.869-.816"/>
        <path class="c6"
              d="M17.21 2.58c0-.67.54-1.21 1.21-1.21s1.21.54 1.21 1.21v8.904A2.42 2.42 0 0 1 18.42 16a2.42 2.42 0 0 1-1.21-4.516z"/>
    </g>
</svg>
